<?xml version="1.0" encoding="utf-8"?>
<!-- Generator: Adobe Illustrator 19.0.0, SVG Export Plug-In . SVG Version: 6.00 Build 0)  -->
<svg version="1.1" id="图层_1" xmlns="http://www.w3.org/2000/svg" xmlns:xlink="http://www.w3.org/1999/xlink" x="0px" y="0px"
	 viewBox="-530.9 -651.5 704 704" style="enable-background:new -530.9 -651.5 704 704;" xml:space="preserve">
<style type="text/css">
	.st0{fill:#0DD8E2;}
	.st1{fill-rule:evenodd;clip-rule:evenodd;fill:#FFFFFF;}
</style>
<path class="st0" d="M-178.9-651.5c194.4,0,352,157.6,352,352c0,194.4-157.6,352-352,352c-194.4,0-352-157.6-352-352
	C-530.9-493.9-373.3-651.5-178.9-651.5z"/>
<path class="st1" d="M-170-238.4c33.1,0,59.9-26.1,59.9-58.2v-152.6c0-32.1-26.8-58.2-59.9-58.2c-33.1,0-59.9,26.1-59.9,58.2v152.6
	C-229.9-264.5-203.1-238.4-170-238.4"/>
<path class="st1" d="M-51.8-305.2v-41.4c0-7.8-6.4-14.1-14.1-14.1c-7.8,0-15.1,6.3-15.1,14.1v41.4c0,59.6-32.7,98-89.3,98
	c-56.5,0-90.2-38.5-90.2-98v-41.4c0-7.8-7.3-14.1-15.1-14.1c-7.8,0-14.1,6.3-14.1,14.1v41.4c0,64,33.3,109.8,88.2,122.4v33h-43.9
	c-7.9,0-14.4,6.4-14.4,14.4c0,7.9,6.4,14.4,14.4,14.4h149.1c7.9,0,14.4-6.4,14.4-14.4c0-7.9-6.4-14.4-14.4-14.4H-140v-33
	C-85.2-195.4-51.8-241.2-51.8-305.2z"/>
</svg>
