<?xml version="1.0" encoding="utf-8"?>
<!-- Generator: Adobe Illustrator 19.0.0, SVG Export Plug-In . SVG Version: 6.00 Build 0)  -->
<svg version="1.1" id="图层_1" xmlns="http://www.w3.org/2000/svg" xmlns:xlink="http://www.w3.org/1999/xlink" x="0px" y="0px"
	 viewBox="-621.5 -152.8 704 704" style="enable-background:new -621.5 -152.8 704 704;" xml:space="preserve">
<style type="text/css">
	.st0{fill:#007FFC;}
	.st1{fill:#FFFFFF;stroke:#007FFC;stroke-width:12;stroke-miterlimit:10;}
</style>
<path class="st0" d="M-269.5-152.8c194.4,0,352,157.6,352,352c0,194.4-157.6,352-352,352c-194.4,0-352-157.6-352-352
	C-621.5,4.8-463.9-152.8-269.5-152.8z"/>
<g>
	<path class="st1" d="M-61,300c0,26.6-21.6,48.2-48.2,48.2h-330c-26.6,0-48.2-21.6-48.2-48.2V95.3c0-26.6,21.6-48.2,48.2-48.2h330
		c26.6,0,48.2,21.6,48.2,48.2V300z"/>
	<path class="st1" d="M-61,89.5l-179.1,134.2c-26.5,17.1-41,15.9-68.2,0L-487.5,89.2"/>
</g>
</svg>
