<?xml version="1.0" encoding="utf-8"?>
<!-- Generator: Adobe Illustrator 19.0.0, SVG Export Plug-In . SVG Version: 6.00 Build 0)  -->
<svg version="1.1" id="图层_1" xmlns="http://www.w3.org/2000/svg" xmlns:xlink="http://www.w3.org/1999/xlink" x="0px" y="0px"
	 viewBox="-272.1 -709.8 704 704" style="enable-background:new -272.1 -709.8 704 704;" xml:space="preserve">
<style type="text/css">
	.st0{fill:#E40012;}
	.st1{fill:#FFFFFF;}
</style>
<path class="st0" d="M79.9-709.8c194.4,0,352,157.6,352,352c0,194.4-157.6,352-352,352c-194.4,0-352-157.6-352-352
	C-272.1-552.2-114.5-709.8,79.9-709.8z"/>
<path class="st1" d="M217.4-214.9l-1.8-0.8c-7-3.2-15-6.4-24-9.7c-42.1-15.6-74.4-30.8-74.4-72.6c0-12.8,5.5-20.1,9.9-26
	c2.9-3.9,5.4-7.3,5.9-11.5l0.2-1.9l1.8-0.6c0,0,7.2-3.2,9.4-20.8c1.7-13.7-0.2-16.5-0.8-17.1c-0.4-0.3-1.1-0.3-2.3,0l-5.8,1.6
	l2.2-5.6c0.2-0.6,0.2-1.4,0-2.5l-0.1-0.5l0.1-0.5c1.3-7.7,3.1-22.8,1.4-37.8c-2.1-18.2-8.6-30-19.4-35.2
	c-24.5-11.8-59.1-5.1-72.8-1.7l-0.4,0.1c-2.2,0.2-4.2,0.8-6,1.6l-1.5,0.7l-1.4-0.9c0,0-2.2-1.3-5.5-0.4c-3.2,0.9-8.1,3.9-13.5,13.9
	c-8.3,15.2-5.8,23.1-3.3,25.1l1.2,0.9l0,1.4c0,0.2,0.7,22.7,6,36l2.3,5.6l-5.9-1.6c-1.2-0.3-1.9-0.3-2.3,0
	c-0.6,0.5-2.5,3.3-0.8,17.1c2.2,17.6,9.4,20.8,9.5,20.9l1.8,0.6l0.1,1.9c0.4,4.2,3,7.6,5.9,11.5c4.4,5.9,9.9,13.3,9.9,26
	c0,41.8-32.2,57.1-74.4,72.6c-9,3.3-17,6.6-24,9.7l-1.8,0.8l-1.5-1.4c-19.9-18.8-35.6-40.9-46.6-65.8
	c-11.4-25.8-17.1-53.3-17.1-81.7c0-111.7,90.9-202.7,202.7-202.7c111.7,0,202.7,90.9,202.7,202.7c0,28.4-5.8,55.9-17.1,81.7
	c-11,24.9-26.7,47.1-46.6,65.8L217.4-214.9z M138.6-333.4c-1,5-3.8,8.8-6.8,12.8c-4.3,5.7-8.7,11.7-8.7,22.4
	c0,38.1,29.2,51.8,70.4,67c8.3,3.1,15.9,6.1,22.6,9.1c18.6-17.9,33.3-38.9,43.7-62.5c11-25,16.6-51.7,16.6-79.3
	c0-108.4-88.2-196.7-196.7-196.7c-108.4,0-196.7,88.2-196.7,196.7c0,27.6,5.6,54.3,16.6,79.3C-89.8-261-75-240-56.4-222.1
	c6.7-3,14.2-6,22.5-9.1c41.2-15.2,70.4-29,70.4-67c0-10.8-4.4-16.7-8.7-22.4c-3-4-5.8-7.8-6.8-12.8c-3.2-2-9.5-8.1-11.6-24.8
	c-1.6-12.6-0.7-19.3,2.9-22.4c0.8-0.7,1.7-1.2,2.7-1.4c-3.8-12.3-4.7-28.1-4.9-32.6c-2.6-3-7.7-12.2,2.8-31.7
	c5.2-9.6,11.1-15.3,17.5-16.9c3.8-0.9,6.8-0.2,8.5,0.5c2-0.8,4.1-1.3,6.4-1.6c8-2,20.3-4.4,33.9-5c17-0.7,31.4,1.7,42.8,7.2
	c12.8,6.2,20.5,19.6,22.8,39.9c1.7,15.4-0.1,30.8-1.4,38.9c0.1,0.3,0.1,0.6,0.1,1c1.4,0.2,2.7,0.7,3.7,1.6c3.6,3.1,4.4,9.8,2.8,22.4
	C148.1-341.5,141.8-335.4,138.6-333.4z"/>
</svg>

